<svg width="417" height="120" viewBox="0 0 417 120" fill="none" xmlns="http://www.w3.org/2000/svg">
<path d="M0.5 119.5H42.5L70.5 77L94 120H136L102.5 60H82L121 0H80L0.5 119.5Z" fill="black"/>
<path d="M0 0V48C33.8307 43.2319 43.9452 32.3254 48 0H0Z" fill="black"/>
<path d="M251 120H275.588V62.6394C282.876 45.5226 291.86 40.2419 317 38.8558V23.3977C298.785 22.8105 289.575 24.4203 275.588 37.8545V23H251V120Z" fill="black"/>
<path d="M233 71.5C233 98.2858 211.286 120 184.5 120C157.714 120 136 98.2858 136 71.5C136 44.7142 157.714 23 184.5 23C211.286 23 233 44.7142 233 71.5ZM157.156 71.5C157.156 86.6018 169.398 98.8443 184.5 98.8443C199.602 98.8443 211.844 86.6018 211.844 71.5C211.844 56.3982 199.602 44.1557 184.5 44.1557C169.398 44.1557 157.156 56.3982 157.156 71.5Z" fill="black"/>
<path d="M417 71.5C417 98.2858 395.286 120 368.5 120C341.714 120 320 98.2858 320 71.5C320 44.7142 341.714 23 368.5 23C395.286 23 417 44.7142 417 71.5ZM341.155 71.5C341.155 86.6025 353.398 98.8455 368.5 98.8455C383.602 98.8455 395.845 86.6025 395.845 71.5C395.845 56.3975 383.602 44.1545 368.5 44.1545C353.398 44.1545 341.155 56.3975 341.155 71.5Z" fill="black"/>
<rect x="396" y="23" width="21" height="97" fill="black"/>
</svg>
